# Blender 5.0.1
# www.blender.org
mtllib din_rails.mtl
o nsyamrd15357sb_1
v -67.500000 13.500000 -1.500000
v -67.500000 12.500000 -1.500000
v -67.500000 13.449000 -1.112000
v -67.500000 12.483000 -1.371000
v -67.500000 13.299000 -0.750000
v -67.500000 12.433000 -1.250000
v -67.500000 13.061000 -0.439000
v -67.500000 12.354000 -1.146000
v -67.500000 12.750000 -0.201000
v -67.500000 12.250000 -1.067000
v -67.500000 12.388000 -0.051000
v -67.500000 12.129000 -1.017000
v -67.500000 12.000000 0.000000
v -67.500000 12.000000 -1.000000
v -67.500000 2.750000 0.000000
v -67.500000 2.750000 -1.000000
v -67.500000 13.500000 -6.000000
v -67.500000 12.500000 -6.000000
v -67.500000 13.517000 -6.129000
v -67.500000 12.551000 -6.388000
v -67.500000 12.701000 -6.750000
v -67.500000 13.567000 -6.250000
v -67.500000 12.939000 -7.061000
v -67.500000 13.646000 -6.354000
v -67.500000 13.250000 -7.299000
v -67.500000 13.750000 -6.433000
v -67.500000 13.612000 -7.449000
v -67.500000 13.871000 -6.483000
v -67.500000 14.000000 -7.500000
v -67.500000 14.000000 -6.500000
v -67.500000 17.500000 -7.500000
v -67.500000 17.500000 -6.500000
v -67.500000 -2.750000 0.000000
v -67.500000 -2.750000 -1.000000
v -67.500000 -12.000000 0.000000
v -67.500000 -12.000000 -1.000000
v -67.500000 -12.388000 -0.051000
v -67.500000 -12.129000 -1.017000
v -67.500000 -12.250000 -1.067000
v -67.500000 -12.750000 -0.201000
v -67.500000 -12.354000 -1.146000
v -67.500000 -13.061000 -0.439000
v -67.500000 -12.433000 -1.250000
v -67.500000 -13.299000 -0.750000
v -67.500000 -12.483000 -1.371000
v -67.500000 -13.449000 -1.112000
v -67.500000 -13.500000 -1.500000
v -67.500000 -12.500000 -1.500000
v -67.500000 -13.500000 -6.000000
v -67.500000 -12.500000 -6.000000
v -67.500000 -12.551000 -6.388000
v -67.500000 -13.517000 -6.129000
v -67.500000 -12.701000 -6.750000
v -67.500000 -13.567000 -6.250000
v -67.500000 -12.939000 -7.061000
v -67.500000 -13.646000 -6.354000
v -67.500000 -13.250000 -7.299000
v -67.500000 -13.750000 -6.433000
v -67.500000 -13.612000 -7.449000
v -67.500000 -13.871000 -6.483000
v -67.500000 -14.000000 -7.500000
v -67.500000 -14.000000 -6.500000
v -67.500000 -17.500000 -6.500000
v -67.500000 -17.500000 -7.500000
v -57.000000 2.750000 0.000000
v -56.287998 2.656000 0.000000
v -55.625000 2.382000 0.000000
v -54.250000 0.000000 0.000000
v 54.250000 0.000000 0.000000
v -54.344002 0.712000 0.000000
v 54.344002 0.712000 0.000000
v -54.618000 1.375000 0.000000
v 54.618000 1.375000 0.000000
v -55.055000 1.945000 0.000000
v 55.055000 1.945000 0.000000
v 55.625000 2.382000 0.000000
v 67.500000 12.000000 0.000000
v -54.344002 -0.712000 0.000000
v 54.344002 -0.712000 0.000000
v -54.618000 -1.375000 0.000000
v 54.618000 -1.375000 0.000000
v -55.055000 -1.945000 0.000000
v 55.055000 -1.945000 0.000000
v -55.625000 -2.382000 0.000000
v 55.625000 -2.382000 0.000000
v -56.287998 -2.656000 0.000000
v -57.000000 -2.750000 0.000000
v 67.500000 -12.000000 0.000000
v 56.287998 -2.656000 0.000000
v 67.500000 -2.750000 0.000000
v 57.000000 -2.750000 0.000000
v 56.287998 2.656000 0.000000
v 57.000000 2.750000 0.000000
v 67.500000 2.750000 0.000000
v 67.500000 12.388000 -0.051000
v 67.500000 12.750000 -0.201000
v 67.500000 13.061000 -0.439000
v 67.500000 13.299000 -0.750000
v 67.500000 13.449000 -1.112000
v 67.500000 13.500000 -1.500000
v 67.500000 13.500000 -6.000000
v 67.500000 13.517000 -6.129000
v 67.500000 13.567000 -6.250000
v 67.500000 13.646000 -6.354000
v 67.500000 13.750000 -6.433000
v 67.500000 13.871000 -6.483000
v 67.500000 14.000000 -6.500000
v 67.500000 17.500000 -6.500000
v 67.500000 17.500000 -7.500000
v 67.500000 14.000000 -7.500000
v 67.500000 13.612000 -7.449000
v 67.500000 13.250000 -7.299000
v 67.500000 12.939000 -7.061000
v 67.500000 12.701000 -6.750000
v 67.500000 12.551000 -6.388000
v 67.500000 12.500000 -6.000000
v 67.500000 12.500000 -1.500000
v 67.500000 12.483000 -1.371000
v 67.500000 12.433000 -1.250000
v 67.500000 12.354000 -1.146000
v 67.500000 12.250000 -1.067000
v 67.500000 12.129000 -1.017000
v 67.500000 12.000000 -1.000000
v -57.000000 -2.750000 -1.000000
v -56.287998 -2.656000 -1.000000
v -55.625000 -2.382000 -1.000000
v -55.625000 2.382000 -1.000000
v 55.625000 2.382000 -1.000000
v -55.055000 1.945000 -1.000000
v 55.055000 1.945000 -1.000000
v -54.618000 1.375000 -1.000000
v 54.618000 1.375000 -1.000000
v -54.344002 0.712000 -1.000000
v 54.344002 0.712000 -1.000000
v -54.250000 0.000000 -1.000000
v 54.250000 0.000000 -1.000000
v -54.344002 -0.712000 -1.000000
v 54.344002 -0.712000 -1.000000
v -54.618000 -1.375000 -1.000000
v 54.618000 -1.375000 -1.000000
v -55.055000 -1.945000 -1.000000
v 55.055000 -1.945000 -1.000000
v 55.625000 -2.382000 -1.000000
v 67.500000 -12.000000 -1.000000
v -56.287998 2.656000 -1.000000
v -57.000000 2.750000 -1.000000
v 67.500000 2.750000 -1.000000
v 57.000000 2.750000 -1.000000
v 56.287998 2.656000 -1.000000
v 56.287998 -2.656000 -1.000000
v 57.000000 -2.750000 -1.000000
v 67.500000 -2.750000 -1.000000
v 67.500000 -12.129000 -1.017000
v 67.500000 -12.250000 -1.067000
v 67.500000 -12.354000 -1.146000
v 67.500000 -12.433000 -1.250000
v 67.500000 -12.483000 -1.371000
v 67.500000 -12.500000 -1.500000
v 67.500000 -12.500000 -6.000000
v 67.500000 -12.551000 -6.388000
v 67.500000 -12.701000 -6.750000
v 67.500000 -12.939000 -7.061000
v 67.500000 -13.250000 -7.299000
v 67.500000 -13.612000 -7.449000
v 67.500000 -14.000000 -7.500000
v 67.500000 -17.500000 -7.500000
v 67.500000 -17.500000 -6.500000
v 67.500000 -14.000000 -6.500000
v 67.500000 -13.871000 -6.483000
v 67.500000 -13.750000 -6.433000
v 67.500000 -13.646000 -6.354000
v 67.500000 -13.567000 -6.250000
v 67.500000 -13.517000 -6.129000
v 67.500000 -13.500000 -6.000000
v 67.500000 -13.500000 -1.500000
v 67.500000 -13.449000 -1.112000
v 67.500000 -13.299000 -0.750000
v 67.500000 -13.061000 -0.439000
v 67.500000 -12.750000 -0.201000
v 67.500000 -12.388000 -0.051000
vn -1.0000 -0.0000 -0.0000
vn -0.0000 -0.0000 1.0000
vn -0.0000 0.2588 0.9659
vn -0.0000 0.5000 0.8660
vn -0.0000 0.7071 0.7071
vn -0.0000 0.8663 0.4995
vn -0.0000 0.8661 0.4999
vn -0.0000 0.9659 0.2588
vn -0.0000 1.0000 -0.0000
vn -0.0000 0.9659 0.2590
vn -0.0000 0.8660 0.5000
vn -0.0000 0.2590 0.9659
vn -0.0000 -0.0000 -1.0000
vn -0.0000 -0.2588 -0.9659
vn -0.0000 -0.2591 -0.9658
vn -0.0000 -0.4998 -0.8661
vn -0.0000 -0.4995 -0.8663
vn -0.0000 -0.7071 -0.7071
vn -0.0000 -0.8661 -0.4999
vn -0.0000 -0.9659 -0.2588
vn -0.0000 -1.0000 -0.0000
vn -0.0000 -0.9658 -0.2591
vn -0.0000 -0.9659 -0.2590
vn -0.0000 -0.8661 -0.5000
vn -0.0000 -0.5000 -0.8660
vn -0.0000 0.2590 -0.9659
vn -0.0000 0.5000 -0.8660
vn -0.0000 0.5000 -0.8661
vn -0.0000 0.7071 -0.7071
vn -0.0000 0.8660 -0.5000
vn -0.0000 0.9658 -0.2591
vn -0.0000 0.9659 -0.2590
vn -0.0000 0.9659 -0.2588
vn -0.0000 0.8661 -0.4998
vn -0.0000 0.8663 -0.4995
vn -0.0000 0.4999 -0.8661
vn -0.0000 0.2588 -0.9659
vn -0.0000 -0.2590 0.9659
vn -0.0000 -0.5000 0.8660
vn -0.0000 -0.7071 0.7071
vn -0.0000 -0.8661 0.5000
vn -0.0000 -0.9659 0.2590
vn -0.0000 -0.9659 0.2588
vn -0.0000 -0.8661 0.4999
vn -0.0000 -0.4995 0.8663
vn -0.0000 -0.4998 0.8661
vn -0.0000 -0.2588 0.9659
vn 1.0000 -0.0000 -0.0000
vn 0.2590 0.9659 -0.0000
vn 0.5000 0.8660 -0.0000
vn 0.4998 0.8661 -0.0000
vn 0.7071 0.7071 -0.0000
vn 0.8661 0.4999 -0.0000
vn 0.8661 0.4998 -0.0000
vn 0.9660 0.2586 -0.0000
vn 0.9660 -0.2586 -0.0000
vn 0.8661 -0.4998 -0.0000
vn 0.8661 -0.4999 -0.0000
vn 0.7071 -0.7071 -0.0000
vn 0.5000 -0.8660 -0.0000
vn 0.4998 -0.8661 -0.0000
vn 0.2590 -0.9659 -0.0000
vn -0.2590 -0.9659 -0.0000
vn -0.4999 -0.8661 -0.0000
vn -0.4995 -0.8663 -0.0000
vn -0.7071 -0.7071 -0.0000
vn -0.8660 -0.5000 -0.0000
vn -0.8660 -0.5001 -0.0000
vn -0.9660 -0.2586 -0.0000
vn -0.9660 0.2586 -0.0000
vn -0.8660 0.5000 -0.0000
vn -0.8660 0.5001 -0.0000
vn -0.7071 0.7071 -0.0000
vn -0.4995 0.8663 -0.0000
vn -0.4999 0.8661 -0.0000
vn -0.2590 0.9659 -0.0000
s 1
usemtl nsyamrd15357sb_color_1
f 1//1 2//1 3//1
f 3//1 2//1 4//1
f 3//1 4//1 5//1
f 5//1 4//1 6//1
f 5//1 6//1 7//1
f 7//1 6//1 8//1
f 7//1 8//1 9//1
f 9//1 8//1 10//1
f 9//1 10//1 11//1
f 11//1 10//1 12//1
f 11//1 12//1 13//1
f 13//1 12//1 14//1
f 13//1 14//1 15//1
f 15//1 14//1 16//1
f 1//1 17//1 2//1
f 2//1 17//1 18//1
f 17//1 19//1 18//1
f 18//1 19//1 20//1
f 20//1 19//1 21//1
f 21//1 19//1 22//1
f 21//1 22//1 23//1
f 23//1 22//1 24//1
f 23//1 24//1 25//1
f 25//1 24//1 26//1
f 25//1 26//1 27//1
f 27//1 26//1 28//1
f 27//1 28//1 29//1
f 29//1 28//1 30//1
f 29//1 30//1 31//1
f 31//1 30//1 32//1
f 33//1 34//1 35//1
f 35//1 34//1 36//1
f 35//1 36//1 37//1
f 37//1 36//1 38//1
f 37//1 38//1 39//1
f 37//1 39//1 40//1
f 40//1 39//1 41//1
f 40//1 41//1 42//1
f 42//1 41//1 43//1
f 42//1 43//1 44//1
f 44//1 43//1 45//1
f 44//1 45//1 46//1
f 46//1 45//1 47//1
f 45//1 48//1 47//1
f 47//1 48//1 49//1
f 48//1 50//1 49//1
f 49//1 50//1 51//1
f 49//1 51//1 52//1
f 52//1 51//1 53//1
f 52//1 53//1 54//1
f 54//1 53//1 55//1
f 54//1 55//1 56//1
f 56//1 55//1 57//1
f 56//1 57//1 58//1
f 58//1 57//1 59//1
f 58//1 59//1 60//1
f 60//1 59//1 61//1
f 60//1 61//1 62//1
f 62//1 61//1 63//1
f 61//1 64//1 63//1
f 15//2 65//2 13//2
f 13//2 65//2 66//2
f 13//2 66//2 67//2
f 68//2 69//2 70//2
f 70//2 69//2 71//2
f 70//2 71//2 72//2
f 72//2 71//2 73//2
f 72//2 73//2 74//2
f 74//2 73//2 75//2
f 74//2 75//2 67//2
f 67//2 75//2 76//2
f 67//2 76//2 13//2
f 13//2 76//2 77//2
f 68//2 78//2 69//2
f 69//2 78//2 79//2
f 78//2 80//2 79//2
f 79//2 80//2 81//2
f 80//2 82//2 81//2
f 81//2 82//2 83//2
f 82//2 84//2 83//2
f 83//2 84//2 85//2
f 85//2 84//2 35//2
f 35//2 84//2 86//2
f 35//2 86//2 87//2
f 87//2 33//2 35//2
f 35//2 88//2 85//2
f 85//2 88//2 89//2
f 90//2 91//2 88//2
f 88//2 91//2 89//2
f 76//2 92//2 77//2
f 77//2 92//2 93//2
f 77//2 93//2 94//2
f 77//2 95//3 13//2
f 13//2 95//3 11//3
f 95//3 96//4 11//3
f 11//3 96//4 9//4
f 9//4 96//4 7//5
f 7//5 96//4 97//5
f 7//5 97//5 98//6
f 7//5 98//6 5//7
f 5//7 98//6 99//8
f 5//7 99//8 3//8
f 3//8 99//8 1//9
f 99//8 100//9 1//9
f 1//9 100//9 17//9
f 17//9 100//9 101//9
f 101//9 102//10 17//9
f 17//9 102//10 19//10
f 19//10 102//10 22//11
f 22//11 102//10 103//11
f 22//11 103//11 104//5
f 22//11 104//5 24//5
f 24//5 104//5 105//4
f 24//5 105//4 26//4
f 26//4 105//4 106//12
f 26//4 106//12 28//3
f 28//3 106//12 30//2
f 106//12 107//2 30//2
f 107//2 108//2 30//2
f 30//2 108//2 32//2
f 32//9 108//9 31//9
f 31//9 108//9 109//9
f 31//13 109//13 29//13
f 29//13 109//13 110//13
f 29//13 110//13 27//14
f 27//14 110//13 111//15
f 27//14 111//15 112//16
f 27//14 112//16 25//17
f 25//17 112//16 113//18
f 25//17 113//18 23//18
f 23//18 113//18 114//19
f 23//18 114//19 21//19
f 21//19 114//19 20//20
f 114//19 115//20 20//20
f 20//20 115//20 116//21
f 20//20 116//21 18//21
f 116//21 117//21 18//21
f 18//21 117//21 2//21
f 2//21 117//21 4//22
f 4//22 117//21 118//23
f 4//22 118//23 119//24
f 4//22 119//24 6//24
f 6//24 119//24 120//18
f 6//24 120//18 8//18
f 8//18 120//18 10//25
f 120//18 121//25 10//25
f 10//25 121//25 122//14
f 10//25 122//14 12//14
f 12//14 122//14 123//13
f 12//14 123//13 14//13
f 34//13 124//13 36//13
f 36//13 124//13 125//13
f 36//13 125//13 126//13
f 14//13 123//13 127//13
f 127//13 123//13 128//13
f 127//13 128//13 129//13
f 129//13 128//13 130//13
f 129//13 130//13 131//13
f 131//13 130//13 132//13
f 131//13 132//13 133//13
f 133//13 132//13 134//13
f 133//13 134//13 135//13
f 135//13 134//13 136//13
f 135//13 136//13 137//13
f 137//13 136//13 138//13
f 137//13 138//13 139//13
f 139//13 138//13 140//13
f 139//13 140//13 141//13
f 141//13 140//13 142//13
f 141//13 142//13 126//13
f 126//13 142//13 143//13
f 126//13 143//13 36//13
f 36//13 143//13 144//13
f 127//13 145//13 14//13
f 14//13 145//13 146//13
f 14//13 146//13 16//13
f 147//13 148//13 123//13
f 123//13 148//13 149//13
f 123//13 149//13 128//13
f 143//13 150//13 144//13
f 144//13 150//13 151//13
f 144//13 151//13 152//13
f 36//13 144//13 38//26
f 38//26 144//13 153//26
f 38//26 153//26 154//27
f 38//26 154//27 39//28
f 39//28 154//27 155//29
f 39//28 155//29 41//29
f 41//29 155//29 156//30
f 41//29 156//30 43//30
f 43//30 156//30 45//31
f 156//30 157//32 45//31
f 45//31 157//32 158//9
f 45//31 158//9 48//9
f 48//9 158//9 50//9
f 50//9 158//9 159//9
f 50//9 159//9 51//33
f 51//33 159//9 160//33
f 51//33 160//33 161//34
f 51//33 161//34 53//35
f 53//35 161//34 162//29
f 53//35 162//29 55//29
f 55//29 162//29 57//36
f 162//29 163//36 57//36
f 57//36 163//36 164//37
f 57//36 164//37 59//37
f 59//37 164//37 165//13
f 59//37 165//13 61//13
f 61//13 165//13 64//13
f 64//13 165//13 166//13
f 166//21 167//21 64//21
f 64//21 167//21 63//21
f 167//2 168//2 63//2
f 63//2 168//2 62//2
f 168//2 169//38 62//2
f 62//2 169//38 60//38
f 169//38 170//39 60//38
f 60//38 170//39 58//39
f 58//39 170//39 56//40
f 56//40 170//39 171//40
f 56//40 171//40 172//41
f 56//40 172//41 54//41
f 54//41 172//41 173//42
f 54//41 173//42 52//42
f 52//42 173//42 49//21
f 173//42 174//21 49//21
f 174//21 175//21 49//21
f 49//21 175//21 47//21
f 175//21 176//43 47//21
f 47//21 176//43 46//43
f 46//43 176//43 44//44
f 44//44 176//43 177//44
f 44//44 177//44 178//40
f 44//44 178//40 42//40
f 42//40 178//40 179//45
f 42//40 179//45 40//46
f 40//46 179//45 180//47
f 40//46 180//47 37//47
f 37//47 180//47 35//2
f 180//47 88//2 35//2
f 94//48 147//48 77//48
f 77//48 147//48 123//48
f 77//48 123//48 122//48
f 77//48 122//48 95//48
f 95//48 122//48 121//48
f 95//48 121//48 96//48
f 96//48 121//48 120//48
f 96//48 120//48 97//48
f 97//48 120//48 119//48
f 97//48 119//48 98//48
f 98//48 119//48 118//48
f 98//48 118//48 99//48
f 99//48 118//48 117//48
f 99//48 117//48 100//48
f 100//48 117//48 101//48
f 117//48 116//48 101//48
f 101//48 116//48 102//48
f 116//48 115//48 102//48
f 102//48 115//48 114//48
f 102//48 114//48 103//48
f 103//48 114//48 113//48
f 103//48 113//48 104//48
f 104//48 113//48 112//48
f 104//48 112//48 105//48
f 105//48 112//48 111//48
f 105//48 111//48 106//48
f 106//48 111//48 107//48
f 111//48 110//48 107//48
f 107//48 110//48 108//48
f 110//48 109//48 108//48
f 176//48 157//48 177//48
f 177//48 157//48 156//48
f 177//48 156//48 178//48
f 178//48 156//48 155//48
f 178//48 155//48 179//48
f 179//48 155//48 154//48
f 179//48 154//48 180//48
f 180//48 154//48 153//48
f 180//48 153//48 88//48
f 88//48 153//48 144//48
f 88//48 144//48 90//48
f 90//48 144//48 152//48
f 176//48 175//48 157//48
f 157//48 175//48 158//48
f 175//48 174//48 158//48
f 158//48 174//48 159//48
f 159//48 174//48 160//48
f 160//48 174//48 173//48
f 160//48 173//48 161//48
f 161//48 173//48 172//48
f 161//48 172//48 162//48
f 162//48 172//48 171//48
f 162//48 171//48 163//48
f 163//48 171//48 170//48
f 163//48 170//48 164//48
f 164//48 170//48 169//48
f 164//48 169//48 165//48
f 165//48 169//48 168//48
f 165//48 168//48 166//48
f 166//48 168//48 167//48
f 148//21 147//21 93//21
f 93//21 147//21 94//21
f 151//9 150//49 91//9
f 91//9 150//49 89//49
f 150//49 143//50 89//49
f 89//49 143//50 85//51
f 85//51 143//50 83//52
f 83//52 143//50 142//52
f 83//52 142//52 140//53
f 83//52 140//53 81//54
f 81//54 140//53 138//55
f 81//54 138//55 79//55
f 79//55 138//55 69//48
f 138//55 136//48 69//48
f 69//48 136//48 71//56
f 136//48 134//56 71//56
f 71//56 134//56 132//57
f 71//56 132//57 73//58
f 73//58 132//57 130//59
f 73//58 130//59 75//59
f 75//59 130//59 76//60
f 130//59 128//61 76//60
f 76//60 128//61 149//62
f 76//60 149//62 92//62
f 92//62 149//62 148//21
f 92//62 148//21 93//21
f 90//9 152//9 91//9
f 91//9 152//9 151//9
f 16//21 146//21 15//21
f 15//21 146//21 65//21
f 65//21 146//21 66//63
f 66//63 146//21 145//63
f 66//63 145//63 127//64
f 66//63 127//64 67//65
f 67//65 127//64 129//66
f 67//65 129//66 74//66
f 74//66 129//66 131//67
f 74//66 131//67 72//68
f 72//68 131//67 70//69
f 131//67 133//69 70//69
f 70//69 133//69 135//1
f 70//69 135//1 68//1
f 68//1 135//1 137//70
f 68//1 137//70 78//70
f 78//70 137//70 80//71
f 137//70 139//72 80//71
f 80//71 139//72 141//73
f 80//71 141//73 82//73
f 82//73 141//73 126//74
f 82//73 126//74 84//75
f 84//75 126//74 125//76
f 84//75 125//76 86//76
f 86//76 125//76 87//9
f 125//76 124//9 87//9
f 87//9 124//9 33//9
f 33//9 124//9 34//9
